<svg xmlns:xlink="http://www.w3.org/1999/xlink" xmlns="http://www.w3.org/2000/svg" class="icon icon-schedule" width="24"  height="24" ><defs><symbol xmlns="http://www.w3.org/2000/svg" viewBox="0 0 16 16" id="icon-schedule">
<path d="M15 11a4 4 0 0 1-4 4 3.98 3.98 0 0 1-2.229-.678l.017.011H3a2 2 0 0 1-2-2h0v-8a2 2 0 0 1 2-2h0 .667v-.667c0-.368.298-.667.667-.667S5 1.298 5 1.667h0v.667h5.333v-.667c0-.368.298-.667.667-.667s.667.298.667.667h0v.667h.667a2 2 0 0 1 2 2h0v4.455h0l.022.034A3.98 3.98 0 0 1 15 11zm-4-2.667c-1.473 0-2.667 1.194-2.667 2.667S9.527 13.667 11 13.667s2.667-1.194 2.667-2.667S12.473 8.333 11 8.333zM3.667 3.667H3c-.368 0-.667.298-.667.667h0v8c0 .368.298.667.667.667h0 4.535C7.198 12.423 7 11.735 7 11a4 4 0 0 1 4-4 3.98 3.98 0 0 1 2.015.544L13 7.535V4.333c0-.368-.298-.667-.667-.667h0-.667v.667c0 .368-.298.667-.667.667s-.667-.298-.667-.667h0v-.667H5v.667C5 4.702 4.702 5 4.333 5s-.667-.298-.667-.667h0v-.667zM11 9c.368 0 .667.298.667.667v1.057l.471.471c.26.26.26.682 0 .943s-.682.26-.943 0l-.667-.667c-.125-.125-.195-.295-.195-.471V9.667c0-.368.298-.667.667-.667z"></path>
</symbol></defs>
                          <use xlink:href="#icon-schedule" fill="#272B30"></use>
                        </svg>