<svg xmlns:xlink="http://www.w3.org/1999/xlink" xmlns="http://www.w3.org/2000/svg" class="icon icon-multiselect" width="24"  height="24" ><defs><symbol xmlns="http://www.w3.org/2000/svg" viewBox="0 0 16 16" id="icon-multiselect">
<path d="M12.666 1.333a2 2 0 0 1 1.995 1.851l.005.149V10a2 2 0 0 1-1.851 1.995l-.149.005H12v.667a2 2 0 0 1-2 2h0-6.667a2 2 0 0 1-2-2h0V6a2 2 0 0 1 2-2h0H4v-.667A2 2 0 0 1 5.85 1.338L6 1.333h6.667zM4 5.333h-.667c-.368 0-.667.298-.667.667h0v6.667c0 .368.298.667.667.667h0H10c.368 0 .667-.298.667-.667h0V12H6a2 2 0 0 1-1.995-1.851L4 10V5.333zm8.667-2.667H6c-.368 0-.667.298-.667.667V10c0 .368.298.667.667.667h6.667c.368 0 .667-.298.667-.667V3.333c0-.368-.298-.667-.667-.667zm-.862 2.195c.26.26.26.682 0 .943L9.138 8.471c-.26.26-.682.26-.943 0L6.862 7.138c-.26-.26-.26-.682 0-.943s.682-.26.943 0l.862.862 2.195-2.195c.26-.26.682-.26.943 0z"></path>
</symbol></defs>
                          <use xlink:href="#icon-multiselect" fill="#272B30"></use>
                        </svg>