<svg xmlns:xlink="http://www.w3.org/1999/xlink" xmlns="http://www.w3.org/2000/svg" class="icon icon-heart" width="20"  height="20" ><defs><symbol xmlns="http://www.w3.org/2000/svg" viewBox="0 0 16 16" id="icon-heart">
<path d="M7.867 3.475L8 3.611l.133-.136c1.495-1.523 3.923-1.523 5.418 0a3.93 3.93 0 0 1 0 5.485l-4.123 4.202a2 2 0 0 1-2.855 0L2.449 8.961a3.93 3.93 0 0 1 0-5.485c1.495-1.523 3.923-1.523 5.418 0zM3.4 4.409c-.979.998-.979 2.62 0 3.618l4.123 4.202c.261.266.69.266.952 0l4.123-4.202c.979-.998.979-2.62 0-3.618a2.45 2.45 0 0 0-3.514 0l-.609.621c-.125.128-.297.2-.476.2s-.35-.072-.476-.2l-.609-.621a2.45 2.45 0 0 0-3.514 0z"></path>
</symbol></defs>
                              <use xlink:href="#icon-heart" fill="#9A9FA5"></use>
                            </svg>