<svg xmlns:xlink="http://www.w3.org/1999/xlink" xmlns="http://www.w3.org/2000/svg" class="icon icon-instagram" width="24"  height="24" ><defs><symbol xmlns="http://www.w3.org/2000/svg" viewBox="0 0 16 16" id="icon-instagram">
<path d="M10.663 1.333a4 4 0 0 1 3.995 3.8l.005.2v5.333a4 4 0 0 1-3.8 3.995l-.2.005H5.33a4 4 0 0 1-3.995-3.8l-.005-.2V5.333a4 4 0 0 1 3.8-3.995l.2-.005h5.333zm0 1.333H5.33c-1.473 0-2.667 1.194-2.667 2.667v5.333c0 1.473 1.194 2.667 2.667 2.667h5.333c1.473 0 2.667-1.194 2.667-2.667V5.333c0-1.473-1.194-2.667-2.667-2.667zm-2.667 2c1.841 0 3.333 1.492 3.333 3.333s-1.492 3.333-3.333 3.333S4.663 9.841 4.663 8s1.492-3.333 3.333-3.333zm0 1.333a2 2 0 1 0 0 4 2 2 0 1 0 0-4zm3.333-2c.368 0 .667.298.667.667s-.298.667-.667.667-.667-.298-.667-.667S10.962 4 11.33 4z"></path>
</symbol></defs>
                        <use xlink:href="#icon-instagram" fill="#6F767E"></use>
                      </svg>