<svg xmlns:xlink="http://www.w3.org/1999/xlink" xmlns="http://www.w3.org/2000/svg" class="icon icon-phone" width="24"  height="24" ><defs><symbol xmlns="http://www.w3.org/2000/svg" viewBox="0 0 16 16" id="icon-phone">
<path d="M3.526 2.121a1.55 1.55 0 0 1 2.094.385h0l1.005 1.371a2 2 0 0 1 .176 2.077h0l-.273.546c-.079.158-.092.341-.011.498.147.286.461.794 1.066 1.399s1.112.918 1.399 1.066c.157.081.34.068.498-.011h0l.546-.273a2 2 0 0 1 2.077.176h0l1.371 1.005a1.55 1.55 0 0 1 .385 2.094c-1.096 1.694-3.104 2.565-4.871 1.592-1.153-.635-2.54-1.6-3.998-3.057S2.568 8.146 1.933 6.992C.96 5.225 1.832 3.217 3.526 2.121zM4.25 3.24c-1.315.851-1.676 2.151-1.149 3.109.577 1.048 1.467 2.333 2.832 3.698s2.65 2.255 3.698 2.832c.958.528 2.258.166 3.109-1.149.063-.097.039-.226-.054-.295l-1.371-1.005c-.202-.148-.469-.17-.692-.059l-.546.273a1.88 1.88 0 0 1-1.705.004c-.403-.207-1.024-.601-1.731-1.309S5.539 8.012 5.331 7.608a1.88 1.88 0 0 1 .004-1.705l.273-.546c.112-.224.089-.491-.059-.692L4.544 3.295c-.068-.093-.198-.117-.295-.054z"></path>
</symbol></defs>
                          <use xlink:href="#icon-phone" fill="#272B30"></use>
                        </svg>