<svg xmlns:xlink="http://www.w3.org/1999/xlink" xmlns="http://www.w3.org/2000/svg" class="icon icon-link" width="20"  height="20" ><defs><symbol xmlns="http://www.w3.org/2000/svg" viewBox="0 0 16 16" id="icon-link">
<path d="M1.333 8c0-1.841 1.492-3.333 3.333-3.333h2c.368 0 .667.298.667.667S7.035 6 6.666 6h-2a2 2 0 1 0 0 4h2c.368 0 .667.298.667.667s-.298.667-.667.667h-2c-1.841 0-3.333-1.492-3.333-3.333zm7.334-2.666c0-.368.298-.667.667-.667h2c1.841 0 3.333 1.492 3.333 3.333s-1.492 3.333-3.333 3.333h-2c-.368 0-.667-.298-.667-.667S8.966 10 9.334 10h2a2 2 0 1 0 0-4h-2c-.368 0-.667-.298-.667-.667zM5.333 8c0-.368.298-.667.667-.667h4c.368 0 .667.298.667.667s-.298.667-.667.667H6c-.368 0-.667-.298-.667-.667z"></path>
</symbol></defs>
                              <use xlink:href="#icon-link" fill="#9A9FA5"></use>
                            </svg>