<svg xmlns:xlink="http://www.w3.org/1999/xlink" xmlns="http://www.w3.org/2000/svg" class="icon icon-basket" width="24"  height="24" ><defs><symbol xmlns="http://www.w3.org/2000/svg" viewBox="0 0 16 16" id="icon-basket">
<path d="M9.414 2.472l2.862 2.862h1.622c.406 0 .717.359.66.761l-.979 6.855a2 2 0 0 1-1.98 1.717H4.401a2 2 0 0 1-1.98-1.717l-.979-6.855c-.057-.402.254-.761.66-.761h1.622l2.862-2.862a2 2 0 0 1 2.828 0zm3.715 4.195H2.87l.871 6.094c.047.328.328.572.66.572h7.197c.332 0 .613-.244.66-.572l.871-6.094zM8.471 3.415a.67.67 0 0 0-.943 0h0L5.609 5.334h4.781zM5.333 8c.368 0 .667.298.667.667v2.667c0 .368-.298.667-.667.667s-.667-.298-.667-.667V8.667c0-.368.298-.667.667-.667zM8 8c.368 0 .667.298.667.667v2.667c0 .368-.298.667-.667.667s-.667-.298-.667-.667V8.667A.67.67 0 0 1 8 8zm2.667 0c.368 0 .667.298.667.667v2.667c0 .368-.298.667-.667.667S10 11.702 10 11.334V8.667c0-.368.298-.667.667-.667z"></path>
</symbol></defs>
                          <use xlink:href="#icon-basket" fill="#FF6A55"></use>
                        </svg>