<svg xmlns:xlink="http://www.w3.org/1999/xlink" xmlns="http://www.w3.org/2000/svg" class="icon icon-twitter" width="24"  height="24" ><defs><symbol xmlns="http://www.w3.org/2000/svg" viewBox="0 0 16 16" id="icon-twitter">
<path d="M10.266 2c1.133 0 1.867.733 2.267 1.2l1.533-.533c.267-.067.6 0 .733.2.2.2.2.533 0 .8l-1.2 1.8c.133.8.267 3.2-1.533 5.6-1.467 2.133-3.8 3-6.067 3-1.6 0-3.267-.4-4.6-1.133-.267-.133-.4-.4-.333-.733.067-.267.267-.533.6-.533 1.133-.133 2-.333 2.8-.733-1.933-1.467-2.933-4.133-2.8-7.6 0-.267.2-.533.4-.6.267-.133.533-.067.733.133C4.133 4.2 5.733 5.6 7.266 5.467c0-.667.067-1.733.667-2.467.533-.667 1.333-1 2.333-1zm.067 1.333c-.6 0-1.067.133-1.333.533-.467.6-.4 1.667-.333 2.067.067.333-.133.667-.467.733-1.933.667-3.867-.6-5.2-1.733.2 2.133.867 4.4 3 5.467.2.133.333.333.333.533a.7.7 0 0 1-.333.6c-.6.4-1.267.733-1.933.933 2.533.6 5.333.133 7.067-2.2 1.8-2.333 1.267-4.667 1.2-4.8-.067-.2 0-.4.067-.533l.267-.4-.133.067c-.333.133-.667-.067-.8-.333l-.025-.04c-.114-.179-.617-.893-1.375-.893z"></path>
</symbol></defs>
                        <use xlink:href="#icon-twitter" fill="#6F767E"></use>
                      </svg>